<?xml version="1.0" encoding="utf-8"?>
<!-- Generator: Adobe Illustrator 27.2.0, SVG Export Plug-In . SVG Version: 6.00 Build 0)  -->
<svg version="1.1" id="Layer_1" xmlns="http://www.w3.org/2000/svg" xmlns:xlink="http://www.w3.org/1999/xlink" x="0px" y="0px"
	 viewBox="0 0 1024 1024" style="enable-background:new 0 0 1024 1024;" xml:space="preserve">
<style type="text/css">
	.st0{fill-rule:evenodd;clip-rule:evenodd;fill:#C0C0C0;}
	.st1{fill-rule:evenodd;clip-rule:evenodd;fill:#212121;}
</style>
<path class="st0" d="M618.8,173.9c-11.9,4.6-21.4,5-44,2.1c-63-8.2-206.6-2.6-272.8,10.5c-38.2,7.6-40.8,8.8-31.3,15.4
	c13,9,93.4,18,183.3,20.6c48.4,1.4,88.6,3.1,89.3,3.7c0.7,0.6-3.3,9.8-9,20.4c-5.7,10.6-10.3,21.7-10.3,24.6s-1.4,4.4-3.1,3.4
	c-1.7-1-2.4,5.2-1.6,13.9c0.8,8.7,0,15.5-1.9,15.2c-1.9-0.3-32.7-0.4-68.4-0.1c-51.9,0.4-65,1.6-65,5.9c0,3,4.5,19.6,10,36.9
	c9.8,30.7,10,47.7,0.7,44.5c-2.6-0.9-13.2-19-23.7-40.2c-17.8-36-26.5-45.1-33.1-34.5c-1.7,2.8-4.6,2.5-8.7-0.9
	c-7.3-6.1,13.2,36.1,96.4,197.5l34.4,66.8l0,73.2c0,40.2-1.1,84.9-2.5,99.2l-2.5,26l-49.9,20c-45.8,18.3-56.5,24-52.5,27.9
	c3,3,233.5,9.2,236.5,6.3c4.8-4.6-3-9.1-56.2-32.4l-49-21.4V677V575.6l28.2-44.4c15.5-24.4,27.3-46.6,26.3-49.3
	c-1-2.7,4.3-14,11.8-25.2c7.5-11.2,13.7-21.1,13.7-22.1c0-1-6.6-9.6-14.6-19.2c-17.4-20.7-37.4-51.2-37.4-57.2
	c0-5,27.7-18.1,63-29.9c27.5-9.1,54.3-10.6,71.7-4c9.6,3.6,10.3,4.8,4.7,8c-3.6,2-12.9,13.2-20.6,24.7
	c-7.7,11.6-18.7,25.4-24.4,30.7c-5.7,5.3-10.4,12-10.4,14.8c0,6,31.6,25.5,41.4,25.5c6.6,0,8.8,4.5,4.4,8.9
	c-3.5,3.5-30.6-5-42.3-13.4c-5.8-4.2-13.3-7.5-16.7-7.5s-7-2.3-8.1-5c-1.1-2.7-2.1-1.4-2.3,3c-0.1,4.4,1.1,10.2,2.8,12.9
	c4.9,7.7,53,27.8,72.6,30.3c67.3,8.6,141.7-43.7,158-111.2c5.6-23.3,2.7-64.4-6.3-88.4c-10.9-29.2-40.3-59.5-73.2-75.6
	c-19.5-9.5-29.7-11.8-58-12.7C645.4,168.5,628.9,170,618.8,173.9 M617,190c-7.1,3.1-13,7.5-13,9.8c0,6.2,10.3,5.1,16-1.8
	c2.7-3.3,6.3-5.1,8.1-4c1.7,1.1,4.2-0.8,5.4-4C636.3,182.7,633.7,182.7,617,190 M542.1,381.6c7.9,12.1,9.5,12.9,8.2,3.9
	c-0.5-3.5-4.1-8.2-8-10.4C535.7,371.4,535.6,371.7,542.1,381.6"/>
<path class="st1" d="M417.3,393.9c-12,8.4-14.5,23.1-6.9,41.9c17,42.5,77,58.6,89.1,24c4.3-12.2,0.3-32.7-8.6-44.3
	C472.9,392.1,435.5,381.2,417.3,393.9 M425.6,417.6c-3.8,9.8,8.4,22,15.2,15.2c3.8-3.8,3-6.7-3.8-13.6
	C429,411.2,428.1,411.1,425.6,417.6 M440.2,535l24.4,49l-2.9,97.6l-2.9,97.6l-46.4,18.5c-48.2,19.2-59.5,24.8-56.3,27.7
	c3.9,3.5,232.7,7.3,230.6,3.8c-1.2-2-26-14.2-54.9-27.1L479,778.6l1.7-102.7l1.7-102.7l21-33c11.5-18.2,23.9-37.8,27.6-43.6
	c3.8-6.1-3.7-0.9-17.9,12.4c-37.9,35.5-57.8,32.6-90.2-13C419,490.5,426.8,508,440.2,535"/>
</svg>
